<svg id="Layer_1" data-name="Layer 1" xmlns="http://www.w3.org/2000/svg" xmlns:xlink="http://www.w3.org/1999/xlink" viewBox="0 0 849.09 228.1"><defs><style>.cls-1{fill:#3a3738;}.cls-2{fill:url(#linear-gradient);}.cls-3{fill:url(#radial-gradient);}.cls-4{fill:url(#radial-gradient-2);}.cls-5{fill:url(#linear-gradient-2);}.cls-6{fill:url(#linear-gradient-3);}</style><linearGradient id="linear-gradient" x1="54.28" y1="4.32" x2="54.28" y2="124.36" gradientUnits="userSpaceOnUse"><stop offset="0" stop-color="#1cccde"/><stop offset="1" stop-color="#5a257b"/></linearGradient><radialGradient id="radial-gradient" cx="-2.79" cy="52.47" r="80.93" gradientUnits="userSpaceOnUse"><stop offset="0" stop-color="#a5a3a4"/><stop offset="1" stop-color="#343132"/></radialGradient><radialGradient id="radial-gradient-2" cx="169.5" cy="235.47" r="120.1" gradientUnits="userSpaceOnUse"><stop offset="0" stop-color="#fff"/><stop offset="1" stop-color="#231f20"/></radialGradient><linearGradient id="linear-gradient-2" x1="135.39" y1="-2.44" x2="136.68" y2="216.13" xlink:href="#linear-gradient"/><linearGradient id="linear-gradient-3" x1="199.99" y1="68.36" x2="75.99" y2="196.93" gradientUnits="userSpaceOnUse"><stop offset="0" stop-color="#adacac"/><stop offset="1" stop-color="#252122"/></linearGradient></defs><path class="cls-1" d="M261.65,132.59H248.84V59.9h12.81Zm0-86.88H248.84V33.59h12.81Zm35,86.88h-12.8V59.9h8.65l2.29,9.28q11.13-9.29,24.5-9.28,27.21,0,27.21,27.07v45.62H333.65V86.77q0-16.22-16.13-16.21-11,0-20.91,9.21ZM367.24,113V48.13h8L378,59.9h19.65V70.28H380V112q0,10.18,8.79,10.18h8.86v10.38H385.51q-18.27,0-18.27-19.59ZM410.5,95.42q0-35.52,33.43-35.52,31,0,31,30.67a74.5,74.5,0,0,1-.62,9.34h-51q0,22.31,26,22.3a79.66,79.66,0,0,0,22-2.77v10.38q-9.63,2.77-23.41,2.77-37.45,0-37.45-37.17Zm12.8-6.16h39.33q-.4-19.11-18.7-19.11-19.37,0-20.63,19.11Zm82.4,43.33H492.88v-99H505.7Zm35,0h-12.8v-99h12.8Zm35.66,0H563.51V59.9h12.81Zm0-86.88H563.51V33.59h12.81Zm39.52,86.88L588.09,59.9h13.84l20.84,57,20.7-57h13.84l-29.55,72.69Zm48.4-37.17q0-35.52,33.44-35.52,31,0,31,30.67a74.5,74.5,0,0,1-.62,9.34H677q0,22.31,26,22.3a79.53,79.53,0,0,0,22-2.77v10.38q-9.62,2.77-23.39,2.77-37.47,0-37.46-37.17ZM677,89.26h39.34q-.43-19.11-18.7-19.11-19.39,0-20.64,19.11Zm65.43-8.6q0-20.76,30.25-20.76a98.64,98.64,0,0,1,25.84,3.46V74.43a83.36,83.36,0,0,0-25.84-4.15q-18.13,0-18.14,10.38,0,9.7,11.44,9.71H776.4q24.92,0,24.92,21.46,0,20.76-30.19,20.76a99,99,0,0,1-25.89-3.45V118.06a83.35,83.35,0,0,0,25.89,4.15q17.39,0,17.38-10.38,0-9.7-12.11-9.7H766q-23.55,0-23.55-21.47ZM818.63,113V48.13h8l2.76,11.77h19.67V70.28H831.43V112q0,10.18,8.81,10.18h8.85v10.38H836.91q-18.28,0-18.28-19.59Zm0,0" transform="translate(0)"/><path d="M252.82,200.08l-6.12-24.24H251l4.3,19,6.29-19h3.85l6.74,19,3.88-19h4.52l-6.32,24.24h-3.9L263.43,182l-6.61,18.12Zm36.77,0h-4.27V175.84h4.27Zm0-29h-4.27v-4h4.27Zm6.23,11.65q0-6.93,10.09-6.93a32.88,32.88,0,0,1,8.61,1.16v3.69a27.86,27.86,0,0,0-8.61-1.37q-6,0-6.05,3.45,0,3.24,3.82,3.24h3.45q8.3,0,8.3,7.15,0,6.92-10.05,6.92a32.85,32.85,0,0,1-8.63-1.15v-3.69a27.87,27.87,0,0,0,8.63,1.39c3.86,0,5.78-1.16,5.78-3.47q0-3.24-4-3.24h-3.45q-7.86,0-7.86-7.15Zm24.24,4.71q0-11.62,11.49-11.64a15.45,15.45,0,0,1,5.94,1.16v-9.91h4.26v31.54a35.1,35.1,0,0,1-10.87,1.45q-10.83,0-10.82-12.6Zm4.19-.16q0,9.21,7.32,9.2a18,18,0,0,0,5.92-.9V180.79a13.51,13.51,0,0,0-5.92-1.25q-7.32,0-7.32,7.78Zm23.26.65q0-12.12,11.55-12.13T370.6,188q0,12.08-11.54,12.08T347.51,188Zm4.27-.1q0,8.76,7.28,8.76t7.27-8.76q0-8.55-7.27-8.55t-7.28,8.55Zm28.85,12.21h-4.27V175.84h2.89l.71,3.06a11.29,11.29,0,0,1,7.59-3.06q5.26,0,7.18,3.33a12.39,12.39,0,0,1,8-3.33q8.36,0,8.35,9.22v15h-4.27V184.82c0-3.61-1.51-5.41-4.56-5.41a8.76,8.76,0,0,0-6.39,3.12v17.55H391.6V184.9c0-3.67-1.51-5.49-4.54-5.49a8.52,8.52,0,0,0-6.43,3.12ZM428.4,188a2.88,2.88,0,1,1,2.89,2.88A2.55,2.55,0,0,1,428.4,188ZM455,200.08l-6.13-24.24h4.32l4.28,19,6.31-19h3.85l6.73,19,3.89-19h4.52l-6.32,24.24h-3.9l-7-18.12L459,200.08Zm30.88-12.39q0-11.85,11.15-11.85,10.35,0,10.34,10.24a24.49,24.49,0,0,1-.2,3.1h-17q0,7.44,8.67,7.45a26.33,26.33,0,0,0,7.34-.93v3.45a28.24,28.24,0,0,1-7.8.93q-12.48,0-12.48-12.39Zm4.27-2.05h13.1q-.12-6.37-6.22-6.37-6.47,0-6.88,6.37Zm21.82,7.13q0-7.46,9.82-7.46a43.35,43.35,0,0,1,6.32.46V183.5c0-2.79-2.17-4.18-6.53-4.18a27.07,27.07,0,0,0-7.66,1.15V177a27.09,27.09,0,0,1,7.66-1.16q10.8,0,10.8,7.54v16.7H530l-1.48-2.4a14,14,0,0,1-7.9,2.4q-8.64,0-8.64-7.31Zm4.27-.07c0,2.62,1.45,3.93,4.37,3.93a11.92,11.92,0,0,0,7.5-2.37v-5a43.36,43.36,0,0,0-6.32-.47q-5.55,0-5.55,3.93Zm27.57,7.38H539.5v-33h4.27Zm7.15-6.53V171.93h2.67l.93,3.91h6.56v3.48h-5.89v13.91c0,2.26,1,3.4,2.94,3.4h3v3.45H557q-6.1,0-6.1-6.53Zm19.85,6.53H566.5v-33h4.27v11.38a11.24,11.24,0,0,1,7.55-2.63q9.06,0,9.06,9v15.21h-4.26V184.81c0-3.6-1.8-5.4-5.38-5.4a10.12,10.12,0,0,0-7,3.07ZM604.7,188c0-1.93.95-2.89,2.87-2.89A2.89,2.89,0,1,1,604.7,188Zm26.55,12.11-6.13-24.24h4.31l4.29,19,6.3-19h3.86l6.73,19,3.89-19H659l-6.32,24.24h-3.9l-7-18.12-6.59,18.12Zm30.88-12.39q0-11.85,11.16-11.85,10.34,0,10.33,10.24a22.93,22.93,0,0,1-.22,3.1h-17q0,7.44,8.67,7.45a26.38,26.38,0,0,0,7.34-.93v3.45a28.29,28.29,0,0,1-7.8.93q-12.48,0-12.48-12.39Zm4.27-2.05h13.1q-.13-6.37-6.21-6.37-6.48,0-6.89,6.37Zm27.46,14.44h-4.27v-33h4.27Zm11.65,0h-4.27v-33h4.27Zm17.55-10.38H711.52v-3.47h11.54Zm5.76,9.39v-32h4.28V177a14.94,14.94,0,0,1,5.88-1.16q11.49,0,11.49,11.64,0,12.6-12.07,12.6a43.37,43.37,0,0,1-9.58-1Zm4.28-18.3v15.07a17.16,17.16,0,0,0,5.1.66q8.07,0,8.07-9.2,0-7.78-7.32-7.78a13.11,13.11,0,0,0-5.85,1.25Zm22,6.9q0-11.85,11.14-11.85,10.34,0,10.34,10.24a24.58,24.58,0,0,1-.21,3.1h-17q0,7.44,8.67,7.45a26.33,26.33,0,0,0,7.34-.93v3.45a28.24,28.24,0,0,1-7.8.93q-12.48,0-12.48-12.39Zm4.27-2.05h13.1q-.13-6.37-6.23-6.37-6.45,0-6.87,6.37Zm27.7,14.44h-4.27V175.84h4.27Zm0-29h-4.27v-4h4.27Zm11.65,29h-4.27V175.84h2.88l.77,3.11a12.42,12.42,0,0,1,8.16-3.11q9.07,0,9.07,9v15.21h-4.26V184.81c0-3.6-1.8-5.4-5.38-5.4a10.1,10.1,0,0,0-7,3.07Zm22.37-12.26q0-12,12.13-12a44.32,44.32,0,0,1,9.5,1v23.23q0,8.78-11.14,8.78a25.09,25.09,0,0,1-7.94-1.16v-3.47a25.58,25.58,0,0,0,8,1.15q6.82,0,6.83-5.3v-1.15a14.85,14.85,0,0,1-5.87,1.15q-11.49,0-11.49-12.26Zm4.21,0q0,8.61,7.31,8.61a13,13,0,0,0,5.84-1.24V180a23.08,23.08,0,0,0-5.42-.54q-7.72,0-7.73,8.37Zm0,0" transform="translate(0)"/><path class="cls-2" d="M108.42,91.41c-24.78,6-39.33,17.37-46.74,31C33.14,114.92,1.22,96.44.17,65.75-.93,34,29.92,12.52,66.75,1.55,22.19,24.86,15,78.32,92.11,88.39a150.1,150.1,0,0,1,16.31,3" transform="translate(0)"/><path class="cls-3" d="M1.51,52.8A45,45,0,0,0,0,66c1,30.69,33,49.17,61.51,56.61a52.32,52.32,0,0,1,14.95-16.91c-42.84-11.5-71-32.05-75-52.88" transform="translate(0)"/><path class="cls-4" d="M160.22,147.69c0,38.19-27,65.24-53,80.41-22.37-16.6-50-59.89-7.57-88.27a30.6,30.6,0,0,0-4.34,3.83C84.85,155,89.75,173.41,107.22,189.8c17.47-16.39,22.38-34.81,11.92-46.14a39.6,39.6,0,0,0-11.92-8.28c13.67-6.7,32.44-10,43.84-12.7.95-.23,1.92-.46,2.89-.72a53,53,0,0,1,6.27,25.73" transform="translate(0)"/><path class="cls-5" d="M216.63,64.2c-1,30.69-33,49.18-61.51,56.61-1,.26-2,.49-2.89.72-11.4,2.66-30.17,6-43.84,12.7l0,0a1.08,1.08,0,0,1-.36.2.18.18,0,0,1-.1.06,47.88,47.88,0,0,0-6.85,4.09l-.23.13c-42.41,28.38-14.81,71.67,7.57,88.27-26-15.16-53-42.22-53-80.41a53,53,0,0,1,6.28-25.72c7.4-13.58,22-24.91,46.73-30.95a151.89,151.89,0,0,1,16.3-3C201.85,76.78,194.61,23.32,150.06,0c36.82,11,67.67,32.48,66.57,64.2" transform="translate(0)"/><path class="cls-6" d="M125.32,107.88c-52,13-64.6,38.38-65.86,63.62,8.35,25.63,29,44.52,49.13,56.26-22.37-16.59-50-59.88-7.57-88.26l.23-.14a49,49,0,0,1,6.85-4.09.15.15,0,0,0,.1-.06,1,1,0,0,0,.36-.19l0,0c13.67-6.7,32.45-10,43.84-12.7.95-.23,1.92-.46,2.89-.72,25.7-6.69,54.06-22.37,60.24-47.81-17.46,13.71-50.14,24-90.24,34.06" transform="translate(0)"/></svg>